<?xml version="1.0" standalone="no"?>
<!DOCTYPE svg PUBLIC "-//W3C//DTD SVG 20010904//EN"
 "http://www.w3.org/TR/2001/REC-SVG-20010904/DTD/svg10.dtd">
<svg version="1.0" xmlns="http://www.w3.org/2000/svg"
 width="512.000000pt" height="512.000000pt" viewBox="0 0 512.000000 512.000000"
 preserveAspectRatio="xMidYMid meet">
<metadata>
Created by potrace 1.14, written by Peter Selinger 2001-2017
</metadata>
<g transform="translate(0.000000,512.000000) scale(0.100000,-0.100000)"
fill="#000000" stroke="none">
<path d="M1374 4352 c-86 -30 -136 -81 -177 -181 l-22 -56 -3 -722 -3 -723
111 0 110 0 0 -109 0 -109 -187 -4 c-171 -5 -196 -8 -273 -33 -212 -69 -376
-195 -483 -374 -49 -80 -100 -211 -112 -287 l-6 -42 71 -4 c66 -3 75 -6 101
-36 40 -45 40 -99 0 -144 -26 -30 -35 -33 -101 -36 l-71 -4 6 -42 c44 -270
266 -540 524 -637 154 -57 72 -54 1361 -54 1181 0 1185 0 1230 21 57 26 104
73 135 134 l25 48 337 5 c308 3 344 6 400 24 210 70 365 228 429 438 13 44 18
93 18 180 0 105 -3 129 -26 193 -60 166 -174 298 -320 370 -130 65 -178 72
-520 72 l-298 0 0 105 0 105 -110 0 -110 0 0 110 0 110 110 0 110 0 0 683 c0
421 -4 706 -10 746 -19 115 -80 204 -170 245 -45 21 -55 21 -1035 23 -923 2
-993 1 -1041 -15z m1860 -206 c69 -29 66 1 66 -628 l0 -568 -29 -32 -29 -33
-682 0 -682 0 -29 33 -29 32 0 569 0 569 25 31 c14 16 38 32 53 34 15 2 314 5
665 6 525 1 644 -1 671 -13z m37 -1944 l29 -32 0 -568 c0 -629 3 -599 -66
-628 -49 -21 -1299 -21 -1348 0 -69 29 -66 -1 -66 627 0 563 0 566 21 593 12
15 31 32 43 36 11 5 322 8 689 7 l669 -2 29 -33z m-1881 -387 l0 -105 105 0
105 0 0 -110 0 -110 -105 0 -105 0 0 -105 0 -105 -110 0 -110 0 0 105 0 105
-105 0 -105 0 0 110 0 110 105 0 105 0 0 105 0 105 110 0 110 0 0 -105z m2891
-40 c64 -45 91 -104 87 -187 -3 -55 -9 -75 -33 -109 -113 -161 -369 -94 -383
100 -5 75 9 119 55 166 51 53 86 66 165 62 56 -2 74 -8 109 -32z"/>
</g>
</svg>
